<svg width="46" height="46" fill="#6e6e6e" viewBox="0 0 24 24" xmlns="http://www.w3.org/2000/svg">
  <path d="M12 1.5A10.5 10.5 0 1 0 22.5 12 10.512 10.512 0 0 0 12 1.5ZM3.015 12.296l1.004.334 1.231 1.847v.962c0 .2.079.39.22.53L7.5 18v1.782a8.996 8.996 0 0 1-4.485-7.486ZM12 21a8.982 8.982 0 0 1-1.929-.213L10.5 19.5l1.354-3.384a.751.751 0 0 0-.073-.694l-1.058-1.588a.75.75 0 0 0-.624-.334H6.4l-.936-1.405L7.061 10.5H8.25V12h1.5V9.95l2.901-5.078-1.302-.744-.641 1.122H8.65l-.814-1.222A8.896 8.896 0 0 1 15 3.525V6a.75.75 0 0 0 .75.75h1.099a.75.75 0 0 0 .624-.334l.657-.987a9.026 9.026 0 0 1 2.04 2.821h-3.055a.75.75 0 0 0-.735.603l-.542 3.353a.75.75 0 0 0 .405.79l2.507 1.254.514 3.042A8.985 8.985 0 0 1 12 21Z"></path>
</svg>